<?xml version="1.0" encoding="UTF-8" standalone="no"?>
<!-- Created with Inkscape (http://www.inkscape.org/) -->
<svg id="svg2" xmlns:rdf="http://www.w3.org/1999/02/22-rdf-syntax-ns#" xmlns="http://www.w3.org/2000/svg" xml:space="preserve" height="124.87" width="599.44" version="1.1" xmlns:cc="http://creativecommons.org/ns#" xmlns:dc="http://purl.org/dc/elements/1.1/"><metadata id="metadata8"><rdf:RDF><cc:Work rdf:about=""><dc:format>image/svg+xml</dc:format><dc:type rdf:resource="http://purl.org/dc/dcmitype/StillImage"/><dc:title/></cc:Work></rdf:RDF></metadata><defs id="defs6"><clipPath id="clipPath430" clipPathUnits="userSpaceOnUse"><path id="path432" d="m0,0,0,2190,3224,0v-2190h-3224z"/></clipPath></defs><g id="g10" transform="matrix(1.25,0,0,-1.25,0,94.196036)"><g id="g12" transform="matrix(0.14874241,0,0,0.14874241,0,-24.53918)"><path id="path14" fill-rule="nonzero" fill="#2e3192" d="m294.87,538.23-27.066,0c-0.438,24.918-1.504,42.54-3.219,52.848-6.648,9.453-18.18,17.832-34.586,25.133-16.402,7.309-34.801,10.961-55.172,10.961-29.168,0-51.742-7.371-67.719-22.113-15.976-14.739-23.964-32.008-23.964-51.797,0.211-14.211,2.5743-25.731,7.0782-34.551s10.945-15.82,19.312-20.981c8.371-5.171,20.703-9.902,37.02-14.199,12.437-2.59,29.761-5.812,51.968-9.691,22.207-3.871,36.637-6.559,43.293-8.051,17.383-4.519,31.438-9.949,42.161-16.277,10.726-6.34,19.253-13.66,25.586-21.934,6.328-8.277,11.531-18.699,15.609-31.269,4.074-12.571,6.117-26.7,6.117-42.379,0-27.508-5.691-51.68-17.078-72.532-8.598-15.687-20.52-30.027-35.773-43.027-15.258-13-30.938-22.723-47.051-29.172-25.782-10.308-56.719-15.48-92.813-15.48-26.426,0-49.953,2.48-70.578,7.422-20.625,4.937-43.293,13.418-67.996,25.461,6.6562,24.488,10.098,61.757,10.312,111.82h27.07c-0.4336-15.524,0.7539-34.801,3.543-57.863,8.168-13.36,22.125-25.098,41.898-35.219,19.766-10.141,41.356-15.199,64.774-15.199,20.41,0,38.617,3.597,54.625,10.808,16,7.211,27.601,17.16,34.804,29.86,7.196,12.703,10.793,27.113,10.793,43.261,0,13.551-2.527,25.168-7.57,34.86-5.051,9.679-12.945,17.429-23.687,23.242-10.747,5.808-29.649,11.828-56.719,18.078-38.887,8.172-64.453,14.09-76.7,17.738-18.48,5.59-33.355,13.641-44.633,24.172-11.281,10.531-19.715,23.262-25.297,38.199-5.5937,14.942-8.3828,31-8.3828,48.192,0,24.058,5.0469,46.25,15.148,66.551,10.098,20.296,23.414,36.046,39.961,47.218,16.543,11.18,35.234,19.192,56.075,24.008,20.836,4.852,42.214,7.262,64.129,7.262,22.769,0,44.843-2.039,66.226-6.11,21.379-4.082,39.906-9.968,55.594-17.679l2.574-7.723c-3.012-13.918-5.207-27.578-6.605-40.969-1.403-13.398-2.414-31.031-3.063-52.879"/><path id="path16" fill-rule="nonzero" fill="#2e3192" d="m410.47,499.04c0-36.437,5-66.578,15-90.43,10-23.847,22.812-40.699,38.437-50.55,15.625-9.848,34.063-14.77,55.313-14.77,19.687,0,37.304,4.68,52.851,14.07,15.547,9.379,27.735,25.25,36.563,47.61,8.828,22.371,13.242,49.5,13.242,81.402,0,21.899-2.383,41.91-7.149,60.051-4.765,18.129-11.601,33.578-20.507,46.328-8.907,12.738-19.414,22.48-31.524,29.199-12.109,6.731-28.164,10.09-48.164,10.09-22.812,0-42.226-5.367-58.242-16.078-16.016-10.699-27.656-26.539-34.922-47.492-7.266-20.957-10.898-44.098-10.898-69.43zm-72.188-13.961c0,28.602,4.336,53.524,13.008,74.774s21.055,39.289,37.148,54.136c16.094,14.84,33.594,25.551,52.5,32.114,24.219,8.277,50.625,12.418,79.219,12.418,28.438,0,54.219-3.981,77.344-11.95,17.187-6.101,32.383-14.89,45.586-26.371,13.203-11.488,23.242-23.238,30.117-35.269,6.875-12.039,12.07-25.239,15.586-39.61,3.516-14.379,5.273-30.242,5.273-47.582,0-29.379-5.078-56.636-15.234-81.797-7.5-18.75-18.477-35.39-32.93-49.921-14.453-14.532-30.898-25.7-49.336-33.52-25.312-10.461-54.218-15.699-86.718-15.699-35.157,0-65.352,6.371-90.586,19.097-25.235,12.743-45.039,31.532-59.414,56.372-14.375,24.839-21.563,55.781-21.563,92.808"/><path id="path18" fill-rule="nonzero" fill="#2e3192" d="m687.3,633.44,0,19.45,76.172-1.641,31.64,0.551,31.641,0.82,8.672,0.27,0-19.45c-16.875,0-27.578-1.48-32.11-4.453-2.343-1.41-3.906-4.136-4.687-8.199-2.188-9.687-3.281-31.019-3.281-63.988v-54.371l0.234-27.43c0-28.59,0.312-46.25,0.937-52.961,1.407-14.687,5.079-26.527,11.016-35.508,5.938-8.992,15.039-16.25,27.305-21.801,12.265-5.55,27.851-8.32,46.758-8.32,21.718,0,39.023,3.711,51.914,11.129,12.89,7.422,22.07,17.07,27.539,28.949,5.468,11.871,8.203,34.453,8.203,67.731v47.82c0,41.25-0.078,66.402-0.235,75.461-0.468,19.691-1.562,31.57-3.281,35.629-1.094,2.5-2.89,4.371-5.39,5.621-5.157,2.66-16.407,4.219-33.75,4.691v19.45c28.281-1.09,45.078-1.641,50.39-1.641,1.406,0,3.516,0.078,6.328,0.238l52.03,1.403v-19.45c-14.53,0-23.67-1.171-27.42-3.511-1.88-1.25-3.4-3.641-4.57-7.149-1.17-3.519-2.31-19.34-3.399-47.461-1.094-28.129-1.641-50.32-1.641-66.57v-55.07c0-14.071-1.015-28.602-3.047-43.602-2.031-15-6.132-27.808-12.304-38.437-6.172-10.621-14.883-20.231-26.133-28.821-11.25-8.601-24.609-15.082-40.078-19.461-15.469-4.371-33.36-6.558-53.672-6.558-23.75,0-45.938,3.199-66.563,9.609-15,4.692-27.265,10.981-36.796,18.871-9.532,7.891-16.797,16.719-21.797,26.481-5,9.769-8.047,19.179-9.141,28.238-0.781,5.629-1.172,20.789-1.172,45.469l0.235,45v59.531c0,21.879-0.391,41.57-1.172,59.07-0.473,6.871-1.414,11.871-2.832,15-0.785,1.719-2.75,3.75-5.887,6.09l-30.656,3.281"/><path id="path20" fill-rule="nonzero" fill="#2e3192" d="m1132.4,325,0,19.219c18.75,0.633,29.89,1.883,33.4,3.75,3.52,1.883,5.9,5,7.15,9.383,1.72,6.718,2.58,26.949,2.58,60.699v140.39c0,38.278-0.24,59.688-0.71,64.219h-33.51c-16.88,0-31.72-0.551-44.53-1.64-5.16-0.469-8.13-1.09-8.91-1.879-1.09-0.93-2.03-3.672-2.81-8.2-2.03-10.941-3.2-23.203-3.52-36.8h-19.45c-0.62,32.039-1.02,50.078-1.17,54.148-0.47,6.871-1.25,14.289-2.35,22.262l2.11,2.34c7.34-0.782,15.15-1.321,23.42-1.641,13.43-0.461,39.26-0.699,77.52-0.699h94.61c39.35,0,65.66,0.238,78.93,0.699,7.17,0.32,14.44,0.859,21.77,1.641l2.35-2.34c-1.41-9.531-2.27-17.891-2.58-25.082-0.16-1.25-0.47-18.36-0.94-51.328h-19.45c-0.31,12.187-1.33,23.828-3.05,34.929-0.94,5.621-1.95,8.981-3.04,10.071-0.94,0.789-3.44,1.328-7.5,1.648-12.82,1.25-28.21,1.871-46.18,1.871h-33.51c-0.47-5.469-0.71-26.871-0.71-64.219v-140.39c0-33.75,0.86-54.063,2.58-60.942,1.1-4.058,3.44-7.07,7.03-9.019,3.6-1.949,14.77-3.238,33.52-3.871v-19.219c-30.27,1.41-55.77,2.109-76.52,2.109-22.16,0-47.66-0.699-76.53-2.109"/><path id="path22" fill-rule="nonzero" fill="#2e3192" d="m1384.6,325,0,20.629c14.84,0.312,23.91,0.781,27.19,1.41,3.28,0.621,5.7,1.52,7.26,2.691,1.57,1.168,2.66,2.848,3.28,5.04,1.57,4.691,2.43,15.55,2.58,32.582l0.94,46.636v109.69l-0.94,46.172c-0.15,17.339-1.01,28.359-2.58,33.039-0.62,2.187-1.67,3.871-3.16,5.039-1.48,1.179-3.87,2.109-7.15,2.82-3.28,0.699-12.42,1.211-27.42,1.52v20.621c25.63-1.09,52.66-1.641,81.09-1.641,25.47,0,48.05,0.551,67.74,1.641v-20.621c-16.72-0.629-26.56-1.29-29.53-1.989-2.97-0.711-5.08-1.832-6.33-3.39-1.25-1.563-2.19-7.02-2.81-16.379-1.41-15.903-2.11-38.832-2.11-68.774v-26.886c11.26-1.102,34.89-1.641,70.89-1.641,45.38,0,73.38,0.539,84.03,1.641v26.886c0,24.172-0.16,39.692-0.47,46.551-1.25,20.75-2.19,32.441-2.81,35.09-0.47,1.871-1.21,3.312-2.23,4.332-1.01,1.008-2.89,1.859-5.62,2.57-2.74,0.699-12.54,1.36-29.42,1.989v20.621c19.66-1.09,42.2-1.641,67.63-1.641,28.39,0,55.38,0.551,80.97,1.641v-20.621c-14.84-0.309-23.91-0.782-27.19-1.411-3.28-0.621-5.7-1.519-7.26-2.687-1.56-1.172-2.66-2.852-3.28-5.043-1.57-4.84-2.43-15.699-2.58-32.578l-0.94-46.871v-109.69l0.94-45.937c0.15-17.5,0.94-28.512,2.34-33.051,0.78-2.18,1.92-3.898,3.4-5.148s3.87-2.192,7.15-2.813c3.28-0.629,12.42-1.098,27.42-1.41v-20.629c-25.59,1.102-52.58,1.641-80.97,1.641-25.43,0-47.97-0.539-67.63-1.641v20.629c16.72,0.621,26.56,1.293,29.53,1.992s5.08,1.84,6.33,3.399c1.25,1.558,2.19,7.031,2.81,16.41,1.25,15.929,1.88,38.898,1.88,68.898v48.992c-7.83,1.09-30.6,1.641-68.31,1.641-36.15,0-60.25-0.16-72.3-0.473-4.85-0.16-9.62-0.547-14.31-1.168v-48.992c0-24.367,0.23-39.918,0.7-46.637,1.25-20.781,2.19-32.582,2.81-35.39,0.47-1.723,1.21-3.09,2.23-4.102,1.02-1.019,2.89-1.879,5.62-2.578,2.74-0.699,12.54-1.371,29.42-1.992v-20.629c-19.69,1.102-42.27,1.641-67.74,1.641-28.43,0-55.46-0.539-81.09-1.641"/><path id="path24" fill-rule="nonzero" fill="#2e3192" d="m2020.4,656.88,21.57,0c5.78-15.949,11.46-31.039,17.09-45.258,24.37-62.543,39.06-99.762,44.06-111.64l28.1-69.421,27.23,105.15c10.47,41.559,16.49,67.027,18.05,76.398,0.47,2.5,0.7,4.852,0.7,7.032,0,3.289-0.74,5.859-2.23,7.738-1.48,1.871-3.71,3.199-6.67,3.98-1.41,0.321-11.25,1.18-29.54,2.582v19.45c27.97-1.09,44.93-1.641,50.86-1.641l55.32,1.641v-19.45c-2.35-0.152-4.07-0.312-5.16-0.472-9.84-0.617-15.86-1.559-18.05-2.809-2.18-1.25-4.29-3.519-6.33-6.801-2.03-3.281-7.38-19.371-16.05-48.281-8.67-28.898-21.41-75.269-38.2-139.1-16.8-63.832-26.06-101.37-27.78-112.62h-35.86l-25.3,68.032-63.95,162.79c-6.72-14.7-30.71-70.84-71.99-168.42l-25.08-62.403h-33.99l-54.51,249.38c-5.96,27.5-10.18,43.981-12.68,49.453-1.73,3.911-4.08,6.559-7.05,7.969-3.77,1.879-11.91,2.969-24.43,3.281v19.45l65.45-1.641,76.68,1.641v-19.45c-13.75-0.472-21.33-0.781-22.74-0.941-4.37-0.621-7.5-1.828-9.37-3.629-1.88-1.801-2.81-4.492-2.81-8.082,0-1.719,0.11-3.719,0.35-5.98,0.23-2.27,1.83-11.289,4.8-27.071,5.8-30.957,10.04-52.59,12.72-64.867l20.92-94.519c1.71,4.199,8.26,19.937,19.64,47.199l29.46,68.469,37.18,89.031c3.12,7.469,6.31,15.41,9.59,23.828"/><path id="path26" fill-rule="nonzero" fill="#2e3192" d="m2276.6,325,0,12.66c9.37,4.379,17.03,8.91,22.97,13.59,0.93,6.57,1.71,17.191,2.34,31.879,1.25,26.871,1.87,46.41,1.87,58.59v105.47c0,4.059-0.23,19.297-0.7,45.7-0.47,17.66-1.56,28.437-3.28,32.347-0.78,1.563-1.95,2.731-3.52,3.512-4.21,1.879-15.46,3.289-33.75,4.219v18.051l54.38,0.39c10.78,0.051,21.09,0.078,30.94,0.078,21.4,0,45.23,0.231,71.48,0.703l47.58,1.168c5.62,0,17.03-0.308,34.22-0.929,1.56,0,4.14-0.469,7.73-1.41l1.64-3.051-4.45-33.75c-0.16-2.34-0.94-13.59-2.34-33.75h-18.29c-0.31,18.441-1.01,29.769-2.1,33.992-0.63,2.18-1.57,3.75-2.82,4.68-2.03,1.41-8.26,2.66-18.71,3.75-15.43,1.718-30.55,2.578-45.37,2.578-13.87,0-28.07-0.539-42.56-1.641-2.19-17.797-3.28-40.398-3.28-67.808v-48.442c10.59-0.777,21.66-1.168,33.19-1.168,3.59,0,16.54,0.309,38.82,0.942,8.4,0.148,13.36,0.699,14.85,1.636,1.46,0.942,2.59,2.582,3.38,4.922,1.87,5.942,2.96,15.86,3.28,29.77h18.98l-1.17-51.571,1.17-51.32h-18.98c0.15,18.121-1.04,29.289-3.56,33.512-1.89,3.129-5.29,5.078-10.17,5.859-10.9,1.719-24.87,2.578-41.92,2.578-15.31,0-27.93-0.547-37.87-1.636v-98.282c0-10.98,0.24-20.398,0.7-28.281,12.64-1.098,27.6-1.648,44.93-1.648,16.83,0,32.38,0.55,46.66,1.648,14.27,1.09,23.04,2.652,26.32,4.68,1.1,0.633,2.11,2.031,3.05,4.222,2.79,7.5,5.76,21.719,8.89,42.661h19.22c-3.44-30.942-5.16-56.411-5.16-76.411l-3.05-3.05c-10-1.09-24.22-1.641-42.65-1.641l-37.74,0.82c-37.18,0.551-62.81,0.821-76.87,0.821-3.75,0-29.85-0.539-78.28-1.641"/><path id="path28" fill-rule="nonzero" fill="#2e3192" d="m2763.4,567.35-19.68,0c-0.32,18.117-1.1,30.937-2.35,38.437-4.84,6.871-13.22,12.961-25.15,18.281-11.94,5.309-25.32,7.969-40.12,7.969-21.21,0-37.64-5.367-49.26-16.09-11.62-10.719-17.42-23.269-17.42-37.668,0.15-10.34,1.87-18.711,5.14-25.133,3.28-6.41,7.96-11.5,14.04-15.257,6.09-3.762,15.06-7.192,26.93-10.332,9.04-1.868,21.64-4.219,37.79-7.039,16.16-2.809,26.65-4.758,31.49-5.86,12.64-3.281,22.87-7.219,30.66-11.84,7.8-4.609,14.01-9.929,18.62-15.941,4.59-6.02,8.38-13.598,11.34-22.75,2.97-9.141,4.46-19.41,4.46-30.82,0-20.008-4.14-37.579-12.42-52.739-6.25-11.422-14.93-21.851-26.02-31.3-11.09-9.461-22.5-16.532-34.22-21.219-18.75-7.5-41.25-11.25-67.5-11.25-19.22,0-36.33,1.801-51.33,5.39-15,3.598-31.48,9.77-49.45,18.52,4.84,17.809,7.34,44.918,7.5,81.328h19.69c-0.32-11.289,0.54-25.32,2.58-42.078,5.93-9.723,16.09-18.262,30.46-25.633,14.38-7.359,30.08-11.039,47.11-11.039,14.85,0,28.09,2.609,39.73,7.859,11.64,5.243,20.08,12.481,25.31,21.723,5.24,9.219,7.85,19.707,7.85,31.449,0,9.86-1.83,18.309-5.5,25.352-3.68,7.039-9.42,12.68-17.23,16.906-7.81,4.223-21.56,8.602-41.25,13.152-28.28,5.942-46.88,10.239-55.78,12.899-13.44,4.062-24.26,9.922-32.46,17.582-8.21,7.66-14.34,16.918-18.4,27.777-4.06,10.864-6.09,22.543-6.09,35.043,0,17.508,3.67,33.641,11.01,48.41,7.34,14.77,17.03,26.219,29.06,34.348,12.03,8.121,25.63,13.941,40.78,17.461,15.16,3.512,30.71,5.27,46.65,5.27,16.56,0,32.61-1.481,48.16-4.442,15.55-2.957,29.02-7.25,40.43-12.867l1.87-5.602c-2.18-10.129-3.78-20.07-4.8-29.808-1.02-9.742-1.76-22.551-2.23-38.449"/><path id="path30" fill-rule="nonzero" fill="#2e3192" d="m2912.1,205,0,26.43c25.79,0.859,41.1,2.582,45.94,5.16,4.83,2.57,8.11,6.871,9.83,12.89,2.36,9.231,3.53,37.059,3.53,83.461v193.04c0,52.641-0.31,82.071-0.96,88.301h-46.09c-23.2,0-43.61-0.75-61.23-2.25-7.09-0.652-11.17-1.511-12.25-2.582-1.5-1.289-2.79-5.051-3.86-11.277-2.8-15.043-4.4-31.91-4.83-50.602h-26.76c-0.85,44.051-1.38,68.86-1.6,74.45-0.64,9.449-1.72,19.652-3.22,30.609l2.89,3.223c10.1-1.071,20.82-1.821,32.21-2.25,18.46-0.653,53.98-0.973,106.58-0.973h130.1c54.1,0,90.27,0.32,108.51,0.973,9.89,0.429,19.87,1.179,29.94,2.25l3.23-3.223c-1.94-13.098-3.11-24.598-3.54-34.481-0.21-1.718-0.64-25.25-1.29-70.578h-26.75c-0.43,16.758-1.82,32.77-4.18,48.02-1.29,7.73-2.7,12.351-4.2,13.859-1.29,1.071-4.73,1.821-10.32,2.25-17.61,1.723-38.77,2.582-63.47,2.582h-46.1c-0.64-7.519-0.95-36.953-0.95-88.301v-193.04c0-46.402,1.17-74.332,3.53-83.793,1.51-5.578,4.73-9.718,9.67-12.41,4.94-2.679,20.31-4.449,46.09-5.308v-26.43c-41.62,1.941-76.7,2.898-105.21,2.898-30.47,0-65.55-0.957-105.24-2.898"/><path id="path32" fill-rule="nonzero" fill="#bf2519" d="m2869.2,100c0-49.699-40.29-90-90-90h-2359.8c-49.707,0-90,40.301-90,90v89.988c0,49.711,40.293,90,90,90h2359.9c49.71,0,90-40.289,90-90v-89.988"/><path id="path34" fill-rule="nonzero" fill="#2e3192" d="m2869.2,100-10,0c0-22.121-8.94-42.059-23.43-56.57-14.5-14.489-34.4-23.418-56.6-23.43h-2359.8c-22.12,0.012-42.06,8.941-56.56,23.43-14.5,14.511-23.43,34.449-23.44,56.57v89.988c0.008,22.133,8.942,42.063,23.434,56.571,14.508,14.5,34.445,23.429,56.566,23.429h2359.9c22.13,0,42.06-8.929,56.57-23.429,14.49-14.508,23.43-34.438,23.43-56.571v-89.988h20v89.988c0,55.242-44.76,100-100,100h-2359.9c-55.23,0-99.992-44.758-100-100v-89.988c0.008-55.23,44.77-99.988,100-100h2359.8c55.24,0.011719,100,44.77,100,100h-10"/><path id="path36" fill-rule="nonzero" fill="#FFF" d="m529.25,141.06c20.18,0,38.113,15.73,38.113,34.98,0,20.602-17.933,31.449-38.113,31.449h-14.41v-66.429h14.41zm55.094-89.75-53.172,64-16.332,0,0-40.68,3.519-23.32-45.156,0,0,153.21-4.484,27.921,66.297,0c38.433,0,75.585-17.902,75.585-56.402,0-20.059-16.332-42.57-40.355-52.867l66.297-71.863h-52.199"/><path id="path38" fill-rule="nonzero" fill="#FFF" d="m731.01,204.52-4.489,27.921,122.67,0,0-26.839-76.55,0,0-48,67.582,0-8.008-26.84-59.574,0,0-52.602,80.71,0-8.003-26.852-114.34,0,0,153.21"/><path id="path40" fill-rule="nonzero" fill="#FFF" d="m1100.9,187.16c-17.93,15.449-37.15,21.692-56.05,21.692-36.19,0-63.415-31.731-63.415-68.063,0-42.301,32.035-65.348,66.625-65.348,21.77,0,46.11,8.6875,64.69,25.489l7.7-27.93c-20.18-15.719-51.25-25.211-78.47-25.211-52.843,0-103.77,30.371-103.77,90.289,0,57.223,46.441,97.621,106.33,97.621,28.83,0,52.85-7.051,73.35-22.508l-16.98-26.031"/><path id="path42" fill-rule="nonzero" fill="#FFF" d="m1300.4,74.09c33.95,0,56.37,28.742,56.37,67.519,0,38.77-22.42,67.52-56.37,67.52s-56.69-28.75-56.69-67.52c0-38.777,22.74-67.519,56.69-67.519zm100.57,69.148c0-54.238-44.84-95.449-103.13-95.449-62.78,0-98.33,40.402-98.33,92.18,0,53.972,44.2,95.179,102.49,95.179,65.98,0,98.97-38.226,98.97-91.91"/><path id="path44" fill-rule="nonzero" fill="#FFF" d="m1561.7,141.06c20.18,0,38.12,15.73,38.12,34.98,0,20.602-17.94,31.449-38.12,31.449h-14.41v-66.429h14.41zm55.1-89.75-53.17,64-16.34,0,0-40.68,3.52-23.32-45.15,0,0,153.21-4.49,27.921,66.3,0c38.43,0,75.59-17.902,75.59-56.402,0-20.059-16.34-42.57-40.36-52.867l66.3-71.863h-52.2"/><path id="path46" fill-rule="nonzero" fill="#FFF" d="m1805.1,77.609,34.58,0c32.68,0,56.38,27.391,56.38,63.719,0,36.883-23.7,64.813-56.38,64.813h-34.58v-128.53zm40.35,154.83c47.73,0,94.49-27.113,94.49-89.48,0-52.332-40.68-91.652-104.1-91.652h-72.38v153.21l-4.49,27.921h86.48"/><path id="path48" fill-rule="nonzero" fill="#FFF" d="m2088.2,74.629,3.51-23.32-45.15,0,0,153.21-4.49,27.921,46.13,0,0-157.81"/><path id="path50" fill-rule="nonzero" fill="#FFF" d="m2394.4,74.629,2.25-23.32-26.6,0-107.93,102.77-12.49,17.082,0-96.531,3.53-23.32-40.36,0,0,153.21-4.49,27.921,32.04,0,105.05-104.66,12.16-16.82,0,93.559-4.48,27.921,41.32,0,0-157.81"/><path id="path52" fill-rule="nonzero" fill="#FFF" d="m2659.9,187.16c-17.94,15.449-37.16,21.692-56.06,21.692-36.19,0-63.41-31.731-63.41-68.063,0-42.301,32.99-66.43,66.3-66.43,16.98,0,32.99,3.5195,32.99,3.5195v38.242l-5.77,23.32h46.12l0.33-79.722s-37.48-11.93-79.44-11.93c-52.84,0-103.77,30.371-103.77,90.289,0,57.223,46.45,97.621,106.34,97.621,28.82,0,52.84-7.051,73.34-22.508l-16.8-26.03"/><g id="g54"/><g id="g70"/><g id="g90"/><path id="path130" fill-rule="nonzero" fill="#2e3192" d="m700.47,863.94,1.261,1.309"/><g id="g166"/><g id="g184"/><g id="g202"/><g id="g220"/><g id="g238"/><g id="g262"/><g id="g288"/><g id="g344"/><g id="g368"/><g id="g384"/><g id="g402"/><g id="g426"><g id="g428" clip-path="url(#clipPath430)"/></g><g id="g458"/><g id="g476"/><g id="g504"/><g id="g522"/></g></g></svg>
