<?xml version="1.0" encoding="UTF-8" standalone="no"?>
<!-- Created with Inkscape (http://www.inkscape.org/) -->
<svg id="svg2" xmlns:rdf="http://www.w3.org/1999/02/22-rdf-syntax-ns#" xmlns="http://www.w3.org/2000/svg" xml:space="preserve" height="124.87" width="599.44" version="1.1" xmlns:cc="http://creativecommons.org/ns#" xmlns:dc="http://purl.org/dc/elements/1.1/"><metadata id="metadata8"><rdf:RDF><cc:Work rdf:about=""><dc:format>image/svg+xml</dc:format><dc:type rdf:resource="http://purl.org/dc/dcmitype/StillImage"/><dc:title/></cc:Work></rdf:RDF></metadata><defs id="defs6"><clipPath id="clipPath430" clipPathUnits="userSpaceOnUse"><path id="path432" d="m0,0,0,2190,3224,0v-2190h-3224z"/></clipPath></defs><g id="g10" transform="matrix(1.25,0,0,-1.25,0,94.196036)"><g id="g12" transform="matrix(0.14874241,0,0,0.14874241,0,-24.53918)"><path id="path14" fill-rule="nonzero" fill="#2e3192" d="m294.87,538.23-27.066,0c-0.438,24.918-1.504,42.54-3.219,52.848-6.648,9.453-18.18,17.832-34.586,25.133-16.402,7.309-34.801,10.961-55.172,10.961-29.168,0-51.742-7.371-67.719-22.113-15.976-14.739-23.964-32.008-23.964-51.797,0.211-14.211,2.5743-25.731,7.0782-34.551s10.945-15.82,19.312-20.981c8.371-5.171,20.703-9.902,37.02-14.199,12.437-2.59,29.761-5.812,51.968-9.691,22.207-3.871,36.637-6.559,43.293-8.051,17.383-4.519,31.438-9.949,42.161-16.277,10.726-6.34,19.253-13.66,25.586-21.934,6.328-8.277,11.531-18.699,15.609-31.269,4.074-12.571,6.117-26.7,6.117-42.379,0-27.508-5.691-51.68-17.078-72.532-8.598-15.687-20.52-30.027-35.773-43.027-15.258-13-30.938-22.723-47.051-29.172-25.782-10.308-56.719-15.48-92.813-15.48-26.426,0-49.953,2.48-70.578,7.422-20.625,4.937-43.293,13.418-67.996,25.461,6.6562,24.488,10.098,61.757,10.312,111.82h27.07c-0.4336-15.524,0.7539-34.801,3.543-57.863,8.168-13.36,22.125-25.098,41.898-35.219,19.766-10.141,41.356-15.199,64.774-15.199,20.41,0,38.617,3.597,54.625,10.808,16,7.211,27.601,17.16,34.804,29.86,7.196,12.703,10.793,27.113,10.793,43.261,0,13.551-2.527,25.168-7.57,34.86-5.051,9.679-12.945,17.429-23.687,23.242-10.747,5.808-29.649,11.828-56.719,18.078-38.887,8.172-64.453,14.09-76.7,17.738-18.48,5.59-33.355,13.641-44.633,24.172-11.281,10.531-19.715,23.262-25.297,38.199-5.5937,14.942-8.3828,31-8.3828,48.192,0,24.058,5.0469,46.25,15.148,66.551,10.098,20.296,23.414,36.046,39.961,47.218,16.543,11.18,35.234,19.192,56.075,24.008,20.836,4.852,42.214,7.262,64.129,7.262,22.769,0,44.843-2.039,66.226-6.11,21.379-4.082,39.906-9.968,55.594-17.679l2.574-7.723c-3.012-13.918-5.207-27.578-6.605-40.969-1.403-13.398-2.414-31.031-3.063-52.879"/><path id="path16" fill-rule="nonzero" fill="#2e3192" d="m410.47,499.04c0-36.437,5-66.578,15-90.43,10-23.847,22.812-40.699,38.437-50.55,15.625-9.848,34.063-14.77,55.313-14.77,19.687,0,37.304,4.68,52.851,14.07,15.547,9.379,27.735,25.25,36.563,47.61,8.828,22.371,13.242,49.5,13.242,81.402,0,21.899-2.383,41.91-7.149,60.051-4.765,18.129-11.601,33.578-20.507,46.328-8.907,12.738-19.414,22.48-31.524,29.199-12.109,6.731-28.164,10.09-48.164,10.09-22.812,0-42.226-5.367-58.242-16.078-16.016-10.699-27.656-26.539-34.922-47.492-7.266-20.957-10.898-44.098-10.898-69.43zm-72.188-13.961c0,28.602,4.336,53.524,13.008,74.774s21.055,39.289,37.148,54.136c16.094,14.84,33.594,25.551,52.5,32.114,24.219,8.277,50.625,12.418,79.219,12.418,28.438,0,54.219-3.981,77.344-11.95,17.187-6.101,32.383-14.89,45.586-26.371,13.203-11.488,23.242-23.238,30.117-35.269,6.875-12.039,12.07-25.239,15.586-39.61,3.516-14.379,5.273-30.242,5.273-47.582,0-29.379-5.078-56.636-15.234-81.797-7.5-18.75-18.477-35.39-32.93-49.921-14.453-14.532-30.898-25.7-49.336-33.52-25.312-10.461-54.218-15.699-86.718-15.699-35.157,0-65.352,6.371-90.586,19.097-25.235,12.743-45.039,31.532-59.414,56.372-14.375,24.839-21.563,55.781-21.563,92.808"/><path id="path18" fill-rule="nonzero" fill="#2e3192" d="m687.3,633.44,0,19.45,76.172-1.641,31.64,0.551,31.641,0.82,8.672,0.27,0-19.45c-16.875,0-27.578-1.48-32.11-4.453-2.343-1.41-3.906-4.136-4.687-8.199-2.188-9.687-3.281-31.019-3.281-63.988v-54.371l0.234-27.43c0-28.59,0.312-46.25,0.937-52.961,1.407-14.687,5.079-26.527,11.016-35.508,5.938-8.992,15.039-16.25,27.305-21.801,12.265-5.55,27.851-8.32,46.758-8.32,21.718,0,39.023,3.711,51.914,11.129,12.89,7.422,22.07,17.07,27.539,28.949,5.468,11.871,8.203,34.453,8.203,67.731v47.82c0,41.25-0.078,66.402-0.235,75.461-0.468,19.691-1.562,31.57-3.281,35.629-1.094,2.5-2.89,4.371-5.39,5.621-5.157,2.66-16.407,4.219-33.75,4.691v19.45c28.281-1.09,45.078-1.641,50.39-1.641,1.406,0,3.516,0.078,6.328,0.238l52.03,1.403v-19.45c-14.53,0-23.67-1.171-27.42-3.511-1.88-1.25-3.4-3.641-4.57-7.149-1.17-3.519-2.31-19.34-3.399-47.461-1.094-28.129-1.641-50.32-1.641-66.57v-55.07c0-14.071-1.015-28.602-3.047-43.602-2.031-15-6.132-27.808-12.304-38.437-6.172-10.621-14.883-20.231-26.133-28.821-11.25-8.601-24.609-15.082-40.078-19.461-15.469-4.371-33.36-6.558-53.672-6.558-23.75,0-45.938,3.199-66.563,9.609-15,4.692-27.265,10.981-36.796,18.871-9.532,7.891-16.797,16.719-21.797,26.481-5,9.769-8.047,19.179-9.141,28.238-0.781,5.629-1.172,20.789-1.172,45.469l0.235,45v59.531c0,21.879-0.391,41.57-1.172,59.07-0.473,6.871-1.414,11.871-2.832,15-0.785,1.719-2.75,3.75-5.887,6.09l-30.656,3.281"/><path id="path20" fill-rule="nonzero" fill="#2e3192" d="m1132.4,325,0,19.219c18.75,0.633,29.89,1.883,33.4,3.75,3.52,1.883,5.9,5,7.15,9.383,1.72,6.718,2.58,26.949,2.58,60.699v140.39c0,38.278-0.24,59.688-0.71,64.219h-33.51c-16.88,0-31.72-0.551-44.53-1.64-5.16-0.469-8.13-1.09-8.91-1.879-1.09-0.93-2.03-3.672-2.81-8.2-2.03-10.941-3.2-23.203-3.52-36.8h-19.45c-0.62,32.039-1.02,50.078-1.17,54.148-0.47,6.871-1.25,14.289-2.35,22.262l2.11,2.34c7.34-0.782,15.15-1.321,23.42-1.641,13.43-0.461,39.26-0.699,77.52-0.699h94.61c39.35,0,65.66,0.238,78.93,0.699,7.17,0.32,14.44,0.859,21.77,1.641l2.35-2.34c-1.41-9.531-2.27-17.891-2.58-25.082-0.16-1.25-0.47-18.36-0.94-51.328h-19.45c-0.31,12.187-1.33,23.828-3.05,34.929-0.94,5.621-1.95,8.981-3.04,10.071-0.94,0.789-3.44,1.328-7.5,1.648-12.82,1.25-28.21,1.871-46.18,1.871h-33.51c-0.47-5.469-0.71-26.871-0.71-64.219v-140.39c0-33.75,0.86-54.063,2.58-60.942,1.1-4.058,3.44-7.07,7.03-9.019,3.6-1.949,14.77-3.238,33.52-3.871v-19.219c-30.27,1.41-55.77,2.109-76.52,2.109-22.16,0-47.66-0.699-76.53-2.109"/><path id="path22" fill-rule="nonzero" fill="#2e3192" d="m1384.6,325,0,20.629c14.84,0.312,23.91,0.781,27.19,1.41,3.28,0.621,5.7,1.52,7.26,2.691,1.57,1.168,2.66,2.848,3.28,5.04,1.57,4.691,2.43,15.55,2.58,32.582l0.94,46.636v109.69l-0.94,46.172c-0.15,17.339-1.01,28.359-2.58,33.039-0.62,2.187-1.67,3.871-3.16,5.039-1.48,1.179-3.87,2.109-7.15,2.82-3.28,0.699-12.42,1.211-27.42,1.52v20.621c25.63-1.09,52.66-1.641,81.09-1.641,25.47,0,48.05,0.551,67.74,1.641v-20.621c-16.72-0.629-26.56-1.29-29.53-1.989-2.97-0.711-5.08-1.832-6.33-3.39-1.25-1.563-2.19-7.02-2.81-16.379-1.41-15.903-2.11-38.832-2.11-68.774v-26.886c11.26-1.102,34.89-1.641,70.89-1.641,45.38,0,73.38,0.539,84.03,1.641v26.886c0,24.172-0.16,39.692-0.47,46.551-1.25,20.75-2.19,32.441-2.81,35.09-0.47,1.871-1.21,3.312-2.23,4.332-1.01,1.008-2.89,1.859-5.62,2.57-2.74,0.699-12.54,1.36-29.42,1.989v20.621c19.66-1.09,42.2-1.641,67.63-1.641,28.39,0,55.38,0.551,80.97,1.641v-20.621c-14.84-0.309-23.91-0.782-27.19-1.411-3.28-0.621-5.7-1.519-7.26-2.687-1.56-1.172-2.66-2.852-3.28-5.043-1.57-4.84-2.43-15.699-2.58-32.578l-0.94-46.871v-109.69l0.94-45.937c0.15-17.5,0.94-28.512,2.34-33.051,0.78-2.18,1.92-3.898,3.4-5.148s3.87-2.192,7.15-2.813c3.28-0.629,12.42-1.098,27.42-1.41v-20.629c-25.59,1.102-52.58,1.641-80.97,1.641-25.43,0-47.97-0.539-67.63-1.641v20.629c16.72,0.621,26.56,1.293,29.53,1.992s5.08,1.84,6.33,3.399c1.25,1.558,2.19,7.031,2.81,16.41,1.25,15.929,1.88,38.898,1.88,68.898v48.992c-7.83,1.09-30.6,1.641-68.31,1.641-36.15,0-60.25-0.16-72.3-0.473-4.85-0.16-9.62-0.547-14.31-1.168v-48.992c0-24.367,0.23-39.918,0.7-46.637,1.25-20.781,2.19-32.582,2.81-35.39,0.47-1.723,1.21-3.09,2.23-4.102,1.02-1.019,2.89-1.879,5.62-2.578,2.74-0.699,12.54-1.371,29.42-1.992v-20.629c-19.69,1.102-42.27,1.641-67.74,1.641-28.43,0-55.46-0.539-81.09-1.641"/><path id="path24" fill-rule="nonzero" fill="#2e3192" d="m2020.4,656.88,21.57,0c5.78-15.949,11.46-31.039,17.09-45.258,24.37-62.543,39.06-99.762,44.06-111.64l28.1-69.421,27.23,105.15c10.47,41.559,16.49,67.027,18.05,76.398,0.47,2.5,0.7,4.852,0.7,7.032,0,3.289-0.74,5.859-2.23,7.738-1.48,1.871-3.71,3.199-6.67,3.98-1.41,0.321-11.25,1.18-29.54,2.582v19.45c27.97-1.09,44.93-1.641,50.86-1.641l55.32,1.641v-19.45c-2.35-0.152-4.07-0.312-5.16-0.472-9.84-0.617-15.86-1.559-18.05-2.809-2.18-1.25-4.29-3.519-6.33-6.801-2.03-3.281-7.38-19.371-16.05-48.281-8.67-28.898-21.41-75.269-38.2-139.1-16.8-63.832-26.06-101.37-27.78-112.62h-35.86l-25.3,68.032-63.95,162.79c-6.72-14.7-30.71-70.84-71.99-168.42l-25.08-62.403h-33.99l-54.51,249.38c-5.96,27.5-10.18,43.981-12.68,49.453-1.73,3.911-4.08,6.559-7.05,7.969-3.77,1.879-11.91,2.969-24.43,3.281v19.45l65.45-1.641,76.68,1.641v-19.45c-13.75-0.472-21.33-0.781-22.74-0.941-4.37-0.621-7.5-1.828-9.37-3.629-1.88-1.801-2.81-4.492-2.81-8.082,0-1.719,0.11-3.719,0.35-5.98,0.23-2.27,1.83-11.289,4.8-27.071,5.8-30.957,10.04-52.59,12.72-64.867l20.92-94.519c1.71,4.199,8.26,19.937,19.64,47.199l29.46,68.469,37.18,89.031c3.12,7.469,6.31,15.41,9.59,23.828"/><path id="path26" fill-rule="nonzero" fill="#2e3192" d="m2276.6,325,0,12.66c9.37,4.379,17.03,8.91,22.97,13.59,0.93,6.57,1.71,17.191,2.34,31.879,1.25,26.871,1.87,46.41,1.87,58.59v105.47c0,4.059-0.23,19.297-0.7,45.7-0.47,17.66-1.56,28.437-3.28,32.347-0.78,1.563-1.95,2.731-3.52,3.512-4.21,1.879-15.46,3.289-33.75,4.219v18.051l54.38,0.39c10.78,0.051,21.09,0.078,30.94,0.078,21.4,0,45.23,0.231,71.48,0.703l47.58,1.168c5.62,0,17.03-0.308,34.22-0.929,1.56,0,4.14-0.469,7.73-1.41l1.64-3.051-4.45-33.75c-0.16-2.34-0.94-13.59-2.34-33.75h-18.29c-0.31,18.441-1.01,29.769-2.1,33.992-0.63,2.18-1.57,3.75-2.82,4.68-2.03,1.41-8.26,2.66-18.71,3.75-15.43,1.718-30.55,2.578-45.37,2.578-13.87,0-28.07-0.539-42.56-1.641-2.19-17.797-3.28-40.398-3.28-67.808v-48.442c10.59-0.777,21.66-1.168,33.19-1.168,3.59,0,16.54,0.309,38.82,0.942,8.4,0.148,13.36,0.699,14.85,1.636,1.46,0.942,2.59,2.582,3.38,4.922,1.87,5.942,2.96,15.86,3.28,29.77h18.98l-1.17-51.571,1.17-51.32h-18.98c0.15,18.121-1.04,29.289-3.56,33.512-1.89,3.129-5.29,5.078-10.17,5.859-10.9,1.719-24.87,2.578-41.92,2.578-15.31,0-27.93-0.547-37.87-1.636v-98.282c0-10.98,0.24-20.398,0.7-28.281,12.64-1.098,27.6-1.648,44.93-1.648,16.83,0,32.38,0.55,46.66,1.648,14.27,1.09,23.04,2.652,26.32,4.68,1.1,0.633,2.11,2.031,3.05,4.222,2.79,7.5,5.76,21.719,8.89,42.661h19.22c-3.44-30.942-5.16-56.411-5.16-76.411l-3.05-3.05c-10-1.09-24.22-1.641-42.65-1.641l-37.74,0.82c-37.18,0.551-62.81,0.821-76.87,0.821-3.75,0-29.85-0.539-78.28-1.641"/><path id="path28" fill-rule="nonzero" fill="#2e3192" d="m2763.4,567.35-19.68,0c-0.32,18.117-1.1,30.937-2.35,38.437-4.84,6.871-13.22,12.961-25.15,18.281-11.94,5.309-25.32,7.969-40.12,7.969-21.21,0-37.64-5.367-49.26-16.09-11.62-10.719-17.42-23.269-17.42-37.668,0.15-10.34,1.87-18.711,5.14-25.133,3.28-6.41,7.96-11.5,14.04-15.257,6.09-3.762,15.06-7.192,26.93-10.332,9.04-1.868,21.64-4.219,37.79-7.039,16.16-2.809,26.65-4.758,31.49-5.86,12.64-3.281,22.87-7.219,30.66-11.84,7.8-4.609,14.01-9.929,18.62-15.941,4.59-6.02,8.38-13.598,11.34-22.75,2.97-9.141,4.46-19.41,4.46-30.82,0-20.008-4.14-37.579-12.42-52.739-6.25-11.422-14.93-21.851-26.02-31.3-11.09-9.461-22.5-16.532-34.22-21.219-18.75-7.5-41.25-11.25-67.5-11.25-19.22,0-36.33,1.801-51.33,5.39-15,3.598-31.48,9.77-49.45,18.52,4.84,17.809,7.34,44.918,7.5,81.328h19.69c-0.32-11.289,0.54-25.32,2.58-42.078,5.93-9.723,16.09-18.262,30.46-25.633,14.38-7.359,30.08-11.039,47.11-11.039,14.85,0,28.09,2.609,39.73,7.859,11.64,5.243,20.08,12.481,25.31,21.723,5.24,9.219,7.85,19.707,7.85,31.449,0,9.86-1.83,18.309-5.5,25.352-3.68,7.039-9.42,12.68-17.23,16.906-7.81,4.223-21.56,8.602-41.25,13.152-28.28,5.942-46.88,10.239-55.78,12.899-13.44,4.062-24.26,9.922-32.46,17.582-8.21,7.66-14.34,16.918-18.4,27.777-4.06,10.864-6.09,22.543-6.09,35.043,0,17.508,3.67,33.641,11.01,48.41,7.34,14.77,17.03,26.219,29.06,34.348,12.03,8.121,25.63,13.941,40.78,17.461,15.16,3.512,30.71,5.27,46.65,5.27,16.56,0,32.61-1.481,48.16-4.442,15.55-2.957,29.02-7.25,40.43-12.867l1.87-5.602c-2.18-10.129-3.78-20.07-4.8-29.808-1.02-9.742-1.76-22.551-2.23-38.449"/><path id="path30" fill-rule="nonzero" fill="#2e3192" d="m2912.1,205,0,26.43c25.79,0.859,41.1,2.582,45.94,5.16,4.83,2.57,8.11,6.871,9.83,12.89,2.36,9.231,3.53,37.059,3.53,83.461v193.04c0,52.641-0.31,82.071-0.96,88.301h-46.09c-23.2,0-43.61-0.75-61.23-2.25-7.09-0.652-11.17-1.511-12.25-2.582-1.5-1.289-2.79-5.051-3.86-11.277-2.8-15.043-4.4-31.91-4.83-50.602h-26.76c-0.85,44.051-1.38,68.86-1.6,74.45-0.64,9.449-1.72,19.652-3.22,30.609l2.89,3.223c10.1-1.071,20.82-1.821,32.21-2.25,18.46-0.653,53.98-0.973,106.58-0.973h130.1c54.1,0,90.27,0.32,108.51,0.973,9.89,0.429,19.87,1.179,29.94,2.25l3.23-3.223c-1.94-13.098-3.11-24.598-3.54-34.481-0.21-1.718-0.64-25.25-1.29-70.578h-26.75c-0.43,16.758-1.82,32.77-4.18,48.02-1.29,7.73-2.7,12.351-4.2,13.859-1.29,1.071-4.73,1.821-10.32,2.25-17.61,1.723-38.77,2.582-63.47,2.582h-46.1c-0.64-7.519-0.95-36.953-0.95-88.301v-193.04c0-46.402,1.17-74.332,3.53-83.793,1.51-5.578,4.73-9.718,9.67-12.41,4.94-2.679,20.31-4.449,46.09-5.308v-26.43c-41.62,1.941-76.7,2.898-105.21,2.898-30.47,0-65.55-0.957-105.24-2.898"/><path id="path32" fill-rule="nonzero" fill="#bf2519" d="m2869.2,100c0-49.699-40.29-90-90-90h-2359.8c-49.707,0-90,40.301-90,90v89.988c0,49.711,40.293,90,90,90h2359.9c49.71,0,90-40.289,90-90v-89.988"/><path id="path34" fill-rule="nonzero" fill="#2e3192" d="m2869.2,100-10,0c0-22.121-8.94-42.059-23.43-56.57-14.5-14.489-34.4-23.418-56.6-23.43h-2359.8c-22.12,0.012-42.06,8.941-56.56,23.43-14.5,14.511-23.43,34.449-23.44,56.57v89.988c0.008,22.133,8.942,42.063,23.434,56.571,14.508,14.5,34.445,23.429,56.566,23.429h2359.9c22.13,0,42.06-8.929,56.57-23.429,14.49-14.508,23.43-34.438,23.43-56.571v-89.988h20v89.988c0,55.242-44.76,100-100,100h-2359.9c-55.23,0-99.992-44.758-100-100v-89.988c0.008-55.23,44.77-99.988,100-100h2359.8c55.24,0.011719,100,44.77,100,100h-10"/><path id="path36" fill-rule="nonzero" fill="#FFF" d="m529.25,141.06c20.18,0,38.113,15.73,38.113,34.98,0,20.602-17.933,31.449-38.113,31.449h-14.41v-66.429h14.41zm55.094-89.75-53.172,64-16.332,0,0-40.68,3.519-23.32-45.156,0,0,153.21-4.484,27.921,66.297,0c38.433,0,75.585-17.902,75.585-56.402,0-20.059-16.332-42.57-40.355-52.867l66.297-71.863h-52.199"/><path id="path38" fill-rule="nonzero" fill="#FFF" d="m731.01,204.52-4.489,27.921,122.67,0,0-26.839-76.55,0,0-48,67.582,0-8.008-26.84-59.574,0,0-52.602,80.71,0-8.003-26.852-114.34,0,0,153.21"/><path id="path40" fill-rule="nonzero" fill="#FFF" d="m1100.9,187.16c-17.93,15.449-37.15,21.692-56.05,21.692-36.19,0-63.415-31.731-63.415-68.063,0-42.301,32.035-65.348,66.625-65.348,21.77,0,46.11,8.6875,64.69,25.489l7.7-27.93c-20.18-15.719-51.25-25.211-78.47-25.211-52.843,0-103.77,30.371-103.77,90.289,0,57.223,46.441,97.621,106.33,97.621,28.83,0,52.85-7.051,73.35-22.508l-16.98-26.031"/><path id="path42" fill-rule="nonzero" fill="#FFF" d="m1300.4,74.09c33.95,0,56.37,28.742,56.37,67.519,0,38.77-22.42,67.52-56.37,67.52s-56.69-28.75-56.69-67.52c0-38.777,22.74-67.519,56.69-67.519zm100.57,69.148c0-54.238-44.84-95.449-103.13-95.449-62.78,0-98.33,40.402-98.33,92.18,0,53.972,44.2,95.179,102.49,95.179,65.98,0,98.97-38.226,98.97-91.91"/><path id="path44" fill-rule="nonzero" fill="#FFF" d="m1561.7,141.06c20.18,0,38.12,15.73,38.12,34.98,0,20.602-17.94,31.449-38.12,31.449h-14.41v-66.429h14.41zm55.1-89.75-53.17,64-16.34,0,0-40.68,3.52-23.32-45.15,0,0,153.21-4.49,27.921,66.3,0c38.43,0,75.59-17.902,75.59-56.402,0-20.059-16.34-42.57-40.36-52.867l66.3-71.863h-52.2"/><path id="path46" fill-rule="nonzero" fill="#FFF" d="m1805.1,77.609,34.58,0c32.68,0,56.38,27.391,56.38,63.719,0,36.883-23.7,64.813-56.38,64.813h-34.58v-128.53zm40.35,154.83c47.73,0,94.49-27.113,94.49-89.48,0-52.332-40.68-91.652-104.1-91.652h-72.38v153.21l-4.49,27.921h86.48"/><path id="path48" fill-rule="nonzero" fill="#FFF" d="m2088.2,74.629,3.51-23.32-45.15,0,0,153.21-4.49,27.921,46.13,0,0-157.81"/><path id="path50" fill-rule="nonzero" fill="#FFF" d="m2394.4,74.629,2.25-23.32-26.6,0-107.93,102.77-12.49,17.082,0-96.531,3.53-23.32-40.36,0,0,153.21-4.49,27.921,32.04,0,105.05-104.66,12.16-16.82,0,93.559-4.48,27.921,41.32,0,0-157.81"/><path id="path52" fill-rule="nonzero" fill="#FFF" d="m2659.9,187.16c-17.94,15.449-37.16,21.692-56.06,21.692-36.19,0-63.41-31.731-63.41-68.063,0-42.301,32.99-66.43,66.3-66.43,16.98,0,32.99,3.5195,32.99,3.5195v38.242l-5.77,23.32h46.12l0.33-79.722s-37.48-11.93-79.44-11.93c-52.84,0-103.77,30.371-103.77,90.289,0,57.223,46.45,97.621,106.34,97.621,28.82,0,52.84-7.051,73.34-22.508l-16.8-26.03"/><g id="g54"/><g id="g70"/><g id="g90"/><path id="path130" fill-rule="nonzero" fill="#2e3192" d="m700.47,863.94,1.261,1.309"/><g id="g166"/><g id="g184"/><g id="g202"/><g id="g220"/><g id="g238"/><g id="g262"/><g id="g288"/><g id="g344"/><g id="g368"/><g id="g384"/><g id="g402"/><g id="g426"><g id="g428" clip-path="url(#clipPath430)"/></g><g id="g458"/><g id="g476"/><g id="g504"/><g id="g522"/></g><path id="path3171" fill="#bb532d" d="M19.399,88.411c-6.141-0.771-9.374-1.652-15.478-4.214-2.9342-1.231-3.7331-1.709-3.6068-2.156,0.87125-3.081,1.6078-10.428,1.6082-16.04l0.0002921-3.9322h2.4467,2.4467l0.00287,2.3593c0.00157,1.2976,0.16388,3.7648,0.36068,5.4827,0.31928,2.7871,0.48867,3.2831,1.5731,4.6065,2.2803,2.7828,7.5078,5.749,12.255,6.9536,2.9253,0.74234,9.1823,0.8437,12.198,0.19761,3.0008-0.64288,6.8379-2.506,8.7045-4.2266,5.0887-4.6906,5.8175-14.616,1.4314-19.494-2.649-2.949-4.108-3.448-23.966-8.198-6.695-1.601-9.254-2.838-12.417-6.001-4.3758-4.375-5.913-8.856-5.647-16.46,0.1789-5.117,1.0151-8.252,3.3098-12.408,2.5515-4.622,7.9058-8.8922,13.607-10.854,7.8602-2.7043,20.448-2.9694,30.007-0.63204,4.0024,0.97874,7.4674,2.3551,7.8827,3.1311,0.2536,0.47385,0.19847,1.5063-0.18955,3.5502-0.47136,2.4828-1.2057,10.676-1.2216,13.63-0.0052,0.95655-0.01703,0.96121-2.4519,0.96121h-2.4467l-0.02552-3.2332c-0.042-5.531-0.354-6.859-1.929-8.221-1.935-1.674-6.53-3.8481-9.404-4.4493-1.345-0.2815-4.075-0.5146-6.066-0.518-5.9501-0.00998-9.9026,1.3931-13.129,4.6606-3.1055,3.1454-4.3013,6.8017-3.7251,11.39,0.5489,4.3714,2.2528,6.8686,5.9678,8.7464,2.7323,1.3811,4.8389,1.9236,14.417,3.7126,9.8749,1.8445,12.479,2.5486,15.818,4.2771,6.124,3.1701,9.1221,8.5421,9.5163,17.051,0.48022,10.365-3.9101,18.735-12.999,24.782-5.8978,3.9243-11.511,5.3922-21.334,5.5787-3.4604,0.0657-6.8421,0.05026-7.5149-0.03431z" transform="matrix(0.8,0,0,-0.8,0,75.356829)"/><path id="path3941" fill="#bb532d" d="M90.563,65.547c-8.141-0.737-14.358-3.442-19.224-8.361-5.634-5.697-8.097-12.491-8.113-22.381-0.017-10.34,2.426-16.995,8.463-23.057,5.924-5.9489,12.476-8.5182,22.894-8.9782,7.937-0.3503,14.047,0.7721,19.747,3.6251,2.7494,1.3766,3.8639,2.2043,6.4799,4.8125,4.2602,4.2476,6.1696,7.9688,7.5032,14.623,0.4372,2.1815,0.55382,10.02,0.18311,12.306-1.326,8.1789-4.3885,14.581-9.0701,18.96-4.0635,3.8011-7.6463,5.7691-13.135,7.2151-2.7937,0.73598-10.436,1.7037-12.234,1.549-0.28836-0.02482-1.8613-0.16619-3.4953-0.31415zm10.737-4.924c6.9308-1.3194,11.605-7.1685,13.79-17.254,0.60104-2.7754,0.5958-14.642-0.008-17.477-2-9.412-6.36-15.548-12.55-17.686-2.674-0.9222-7.704-1.2351-10.779-0.6702-9.851,1.8093-14.89,9.2396-15.416,22.734-0.33102,8.4815,0.76484,14.807,3.5433,20.452,0.85536,1.738,2.1946,3.8864,2.9762,4.7742,4.1791,4.7477,10.787,6.584,18.447,5.1259h-0.00002z" transform="matrix(0.8,0,0,-0.8,0,75.356829)"/><path id="path3943" fill="#bb532d" d="m156,65.538c-5.963-0.57622-12.012-2.7501-15.068-5.415-1.9508-1.7014-3.6381-4.3374-4.5956-7.1795-0.72711-2.1584-0.75494-2.8645-0.87301-22.156-0.11-19.229-0.24-21.554-1.21-22.73-0.21-0.2557-1.44-0.5676-2.73-0.6932-3.55-0.3468-3.56-0.3533-3.56-2.0726v-1.5037l13.632,0.02088,13.632,0.020881v1.4812,1.4812l-2.0098,0.22169c-3.3423,0.36867-3.9333,0.55389-4.4929,1.408-1.2283,1.8747-1.4461,35.373-0.26462,40.703,1.2379,5.5841,5.508,8.7684,12.65,9.4337,5.6636,0.52755,10.429-0.41766,13.8-2.7372,3.1859-2.192,4.4873-4.8292,5.1358-10.407,0.55195-4.7477,0.31888-34.821-0.28078-36.229-0.47635-1.1187-2.2468-1.9929-4.0361-1.9929-0.655,0-1.6824-0.098305-2.2832-0.21846-1.016-0.20321-1.0923-0.3213-1.0923-1.6917v-1.4732l9.9616-0.018832,9.9616-0.018832v1.5106,1.5106l-2.0098,0.22855c-2.7381,0.31136-3.1774,0.46249-3.591,1.2354-0.52632,0.98345-1.012,10.215-1.3783,26.199-0.25372,11.07-0.44852,14.651-0.89371,16.428-2.1218,8.4681-9.4981,13.779-20.392,14.682-2.2368,0.18538-4.3029,0.31811-4.5912,0.29496-0.28837-0.02314-1.8266-0.16794-3.4183-0.32175z" transform="matrix(0.8,0,0,-0.8,0,75.356829)"/><path id="path3945" fill="#bb532d" d="m210.8,62.612,0-1.4563,3.003-0.37205c4.3201-0.53524,4.3833-0.62412,4.723-6.6467,0.3374-5.9823,0.39227-33.453,0.0804-40.27l-0.23026-5.0336-7.6104,0.20321c-4.1857,0.11177-7.9143,0.36586-8.2858,0.56465-0.78715,0.42127-1.0703,1.5751-1.36,5.5418l-0.2106,2.8836h-1.6957-1.6957v-4.4912c0-2.4701-0.0984-5.6552-0.21867-7.078l-0.21867-2.5868h27.701,27.701l-0.21867,2.5868c-0.12026,1.4228-0.21866,4.6079-0.21866,7.078v4.4912h-1.6961-1.6961l-0.22419-2.9166c-0.31523-4.1011-0.56585-5.0915-1.4015-5.5387-0.4431-0.23714-3.7084-0.45745-8.2873-0.55916l-7.5561-0.16784-0.23005,2.7215c-0.317,3.7502-0.25307,39.358,0.0786,43.79,0.34691,4.6358,0.58958,4.9144,4.7275,5.4271l3.003,0.37205v1.4563,1.4563h-13.981-13.981v-1.4563z" transform="matrix(0.8,0,0,-0.8,0,75.356829)"/><path id="path3947" fill="#bb532d" d="m257.64,62.408,0-1.7381,2.2198,0c3.3109,0,4.3233-0.46371,4.8404-2.2171,0.50222-1.7029,0.65082-44.471,0.1663-47.862-0.36486-2.5539-1.0272-3.0308-4.5821-3.2997l-2.6443-0.19999v-1.6586-1.6586l13.632,0.017707,13.632,0.017707v1.65,1.65l-2.9048,0.24197c-1.5977,0.13309-3.0962,0.36026-3.3302,0.50483-0.68971,0.42626-1.0362,3.8757-1.2885,12.829l-0.23746,8.4246,1.3464,0.22244c1.7626,0.29119,25.061,0.28907,26.825-0.0024l1.3615-0.22488-0.22566-8.7717c-0.24-9.225-0.52-11.978-1.29-12.452-0.26-0.1583-1.77-0.3966-3.37-0.5297l-2.9048-0.24197v-1.65-1.65l13.632-0.017707,13.632-0.017707v1.6631,1.6631l-2.6007,0.1669c-3.3067,0.21221-4.2186,0.77508-4.5112,2.7844-0.41098,2.8227-0.64257,32.232-0.31962,40.588,0.38979,10.085,0.2473,9.7788,4.6427,9.9784l2.7888,0.12664v1.7023,1.7023l-13.632-0.0049-13.632-0.0049v-1.6825-1.6825l3.0279-0.21368c1.6654-0.11753,3.1718-0.35759,3.3477-0.53348,0.7462-0.7462,0.99036-3.6458,1.1994-14.243l0.2212-11.216-2.9369-0.22858c-3.7522-0.29203-22.277-0.29674-24.695-0.0063l-1.835,0.22041,0.006,4.4078c0.008,5.7495,0.61239,19.694,0.88463,20.404,0.29436,0.76708,0.94163,0.95759,4.0743,1.1992l2.7248,0.21012v1.6795,1.6795l-13.632,0.0068-13.632,0.0068v-1.7381,0.000021z" transform="matrix(0.8,0,0,-0.8,0,75.356829)"/><path id="path3949" fill="#bb532d" d="M349.08,63.917c-0.11-0.344-2.41-10.77-5.11-23.17-5.93-27.196-6.91-31.26-7.75-32.328-0.63-0.8105-1.08-0.9672-4.04-1.4142-1.48-0.2233-1.49-0.2303-1.49-1.7094v-1.4852l13.107-0.015275,13.107-0.015275v1.4837,1.4837l-1.6217,0.22227c-0.89192,0.12225-2.0604,0.22227-2.5965,0.22227-1.4118,0-2.0734,0.84165-2.0734,2.6376,0,2.0313,1.9391,12.236,4.7326,24.904,1.2419,5.6322,2.258,10.343,2.258,10.468,0,0.12547,0.13915,0.0787,0.30922-0.10393,0.3053-0.32784,9.0652-20.844,14.842-34.761l2.9743-7.1654,1.9108-0.10373,1.9108-0.10373,0.95545,2.5504c1.5563,4.1543,11.803,30.137,13.805,35.006,1.1695,2.8441,1.9426,4.3193,2.1065,4.0196,0.14247-0.26036,1.7719-6.3873,3.621-13.615,4.9838-19.482,5.425-21.812,4.3357-22.901-0.29-0.2758-1.37-0.5838-2.42-0.6855-4.3-0.4183-4.17-0.3551-4.17-2.0302v-1.5015l9.7869-0.01034,9.7869-0.010339v1.4869c0,1.6201-0.394,1.9033-2.6617,1.9132-1.5695,0.00688-2.7809,1.1366-3.618,3.374-1.773,4.7388-7.1277,24.031-11.725,42.245l-2.9115,11.535h-3.2145-3.2145l-2.5366-6.8158c-3.11-8.32-13.7-35.291-13.98-35.569-0.11017-0.11017-0.26184-0.13477-0.33705-0.05467-0.2115,0.22525-14.649,34.258-16.373,38.594l-1.5283,3.8448-3.0121,0.10059c-2.6396,0.08814-3.0361,0.02328-3.2055-0.5243z" transform="matrix(0.8,0,0,-0.8,0,75.356829)"/><path id="path3951" fill="#bb532d" d="m423.32,63.149c0-0.79125,0.25128-1.0877,1.337-1.5773,0.73536-0.3316,1.7565-0.94532,2.2692-1.3638l0.93223-0.76091,0.39105-9.0878c0.3997-9.289,0.233-38.984-0.2292-40.829-0.36573-1.4602-1.5986-2.0739-4.5464-2.2631l-2.6007-0.1669v-1.47-1.47l14.738-0.23166c22.583-0.35498,29.77-0.30652,30.445,0.20525,0.52755,0.39998,0.53377,0.73237,0.0736,3.9322-0.27647,1.9224-0.50787,4.2817-0.51423,5.243-0.0198,2.9951-0.21243,3.3205-1.9652,3.3205h-1.5321v-2.5987c0-3.5098-0.33195-4.2661-2.0788-4.7365-1.8361-0.49441-9.5886-0.90512-14.737-0.78072l-4.0578,0.098049-0.21216,2.3487c-0.11668,1.2918-0.31979,6.2172-0.45136,10.945l-0.23921,8.5968,3.2667,0.2466c1.7967,0.13563,5.5283,0.13665,8.2925,0.0023,5.9167-0.28766,5.9298-0.29662,6.2654-4.3002l0.20804-2.4815h1.5222,1.5222v9.4373,9.4373h-1.5729-1.5729l-0.002-2.0098c-0.002-2.6243-0.55203-4.529-1.4444-5.0066-1.037-0.55497-8.5684-1.0103-12.773-0.7722l-3.6068,0.20426,0.002,8.5982c0.00098,4.729,0.1044,10.148,0.22979,12.041l0.22799,3.4431,9.8192-0.16312c6.1798-0.10266,10.311-0.31781,11.147-0.58049,1.5167-0.4769,1.7094-0.84704,2.4995-4.8002,0.94205-4.7136,0.709-4.3134,2.5116-4.3134h1.6065l-0.22643,1.835c-0.12453,1.0093-0.36321,4.1756-0.5304,7.0362-0.21696,3.7122-0.43885,5.2865-0.77506,5.4993-0.25909,0.16392-10.184,0.29116-22.055,0.28276l-21.584-0.01528v-0.97438z" transform="matrix(0.8,0,0,-0.8,0,75.356829)"/><path id="path3953" fill="#bb532d" d="m488.49,65.563c-3.8612-0.32968-6.5517-0.99907-10.889-2.7091l-3.3223-1.3099,0.23248-1.7477c0.63399-4.766,0.87757-7.5958,0.87999-10.224l0.003-2.8836h1.7476,1.7477l0.0208,2.3593c0.0477,5.3991,0.82627,6.8912,4.8726,9.3379,6.3598,3.8457,15.682,3.6092,20.37-0.51681,2.4284-2.1376,3.1872-4.0386,3.2071-8.0347,0.0338-6.7964-1.952-8.2963-15.013-11.339-7.9216-1.8457-10.017-2.5763-12.228-4.2645-7.0662-5.3954-7.0844-18.44-0.0355-25.498,3.8856-3.8905,8.9046-5.6365,17.157-5.9682,5.192-0.20871,9.7807,0.3882,14.122,1.837,3.6624,1.2224,3.6863,1.2553,3.1783,4.3841-0.23001,1.4166-0.52028,4.2272-0.64505,6.2457l-0.22684,3.6701-1.6213,0.10494-1.6213,0.10494-0.24897-3.4785c-0.23692-3.3102-0.30221-3.5281-1.3497-4.5041-3.3358-3.1081-9.4587-4.6182-14.613-3.604-5.8624,1.1534-9.0299,4.7183-9.021,10.153,0.005,3.1178,0.70336,4.9198,2.5269,6.5209,1.8405,1.616,4.4102,2.4317,12.555,3.9852,4.0237,0.76752,8.1188,1.7006,9.1002,2.0735,6.1132,2.3228,9.0125,6.8661,9.0125,14.123,0,6.0782-1.5597,9.8852-5.7601,14.06-2.3248,2.3105-3.4681,3.1371-6.1501,4.4467-4.8993,2.3924-10.883,3.2828-17.986,2.6763z" transform="matrix(0.8,0,0,-0.8,0,75.356829)"/><path id="path3955" fill="#bb532d" d="m541.46,84.228,0-2.1325,4.0271-0.36628c5.8799-0.5348,6.2847-0.90852,6.8076-6.284,0.41898-4.3072,0.44884-64.061,0.0323-64.719-0.25607-0.40435-1.8188-0.44257-9.3858-0.22959-4.9932,0.14054-9.9231,0.35884-10.955,0.48512-2.3413,0.28644-2.6044,0.74933-3.1312,5.5083-0.21063,1.9027-0.45874,4.128-0.55138,4.945l-0.16842,1.4855h-2.1788-2.1788l-0.4029-9.6995c-0.2216-5.3347-0.2932-9.792-0.15911-9.905,0.13409-0.11307,2.2099-0.06696,4.6129,0.10246,4.1064,0.28952,68.922,0.18991,70.43-0.10823,0.79735-0.15761,0.76055-1.4562,0.33075,11.673l-0.26078,7.9666-2.3069-0.10216-2.3069-0.10216-0.23787-3.5851c-0.2841-4.2821-0.85063-7.2276-1.4926-7.7604-0.52319-0.43421-15.043-1.1727-19.591-0.99647l-2.7962,0.10838-0.0893,31.106c-0.0491,17.108,0.0505,32.5,0.22137,34.203,0.48438,4.8291,1.3787,5.5478,7.4702,6.0034l3.0584,0.22872v2.1532,2.1532h-19.399-19.399v-2.1325z" transform="matrix(0.8,0,0,-0.8,0,75.356829)"/><path id="path3957" fill="#ffc983" d="m73.436,124.08c-3.3279-0.88454-5.6283-2.2426-8.2653-4.8797-2.5523-2.5523-3.4949-4.0298-4.7724-7.4806-0.65106-1.7587-0.73088-2.9156-0.85718-12.425-0.15658-11.789,0.09387-13.972,2.0631-17.98,2.2834-4.6483,7.7872-8.8496,12.841-9.802,1.2614-0.23774,74.913-0.35484,223.19-0.35484,197.53,0,221.53,0.05746,223.39,0.53494,5.8991,1.5148,10.684,5.7628,12.993,11.535l0.97435,2.4359v12.059c0,11.607-0.0294,12.144-0.78836,14.338-1.818,5.2566-6.1043,9.5915-11.498,11.629l-2.0442,0.77208-222.65,0.0651c-194.36,0.0568-222.9,0.00016-224.57-0.44589zm444.93-2.9495c6.1836-0.80248,11.007-4.8654,12.804-10.784,0.37407-1.2325,0.49085-4.1477,0.49375-12.326,0.003-9.6871-0.0623-10.925-0.68694-12.947-1.5177-4.9138-5.0592-8.392-10.103-9.923-1.3773-0.41804-34.201-0.49052-223.6-0.49375-221.84-0.0038-221.99-0.0033-224.05,0.70257-4.9578,1.6963-8.5928,5.6466-9.7634,10.61-0.7813,3.313-0.69116,21.24,0.12237,24.335,1.5762,5.9973,6.8068,10.289,13.344,10.95,3.0769,0.31074,439.03,0.18839,441.44-0.12388z" transform="matrix(0.8,0,0,-0.8,0,75.356829)"/><path id="path3959" fill="#ffc983" d="m76.058,120.78c-3.6306-0.56996-6.5808-2.1552-9.0053-4.8388-1.5808-1.7498-2.5517-3.6209-3.23-6.2249-0.76134-2.923-0.75142-20.758,0.01317-23.693,1.1597-4.4524,3.8965-7.7316,8.1244-9.7344l2.35-1.1132,219.8-0.08957c120.89-0.04927,221.49,0.04164,223.55,0.20201,4.388,0.34105,6.2613,1.0865,8.8995,3.5414,2.0621,1.9189,3.2125,3.671,4.0957,6.238,0.59553,1.7309,0.66292,3.0352,0.66292,12.828,0,9.7925-0.0674,11.097-0.66292,12.828-1.6021,4.6566-4.891,7.928-9.6778,9.6262-1.6265,0.57702-13.487,0.61208-222.45,0.65751-121.4,0.0264-221.51-0.0755-222.48-0.22636zm124.18-5.6149c2.6172-0.69101,6.3639-2.2777,7.5703-3.2061,0.67214-0.5172,0.67235-0.55665,0.0174-3.1869-0.36476-1.4648-0.81346-2.6632-0.99712-2.6632s-0.82064,0.37091-1.4155,0.82424c-1.7934,1.3667-4.6083,2.6475-7.1079,3.2342-7.5166,1.7643-14.497-2.545-15.399-9.5062-1.141-8.8064,5.8791-15.823,14.126-14.12,2.2012,0.45477,4.8675,1.6686,6.6512,3.0278l1.0995,0.83787,1.6079-2.5477,1.6079-2.5477-0.78495-0.66389c-1.325-1.1206-5.0494-2.6504-7.8802-3.2368-3.1736-0.65734-9.0525-0.47071-11.702,0.37149-6.4627,2.054-11.341,6.9789-12.798,12.92-0.54061,2.2046-0.54372,6.6145-0.006,8.8073,2.3421,9.5544,13.677,14.753,25.411,11.655h0.00001zm46.911,0.17578c6.1717-1.837,10.895-6.2306,12.65-11.767,0.81295-2.5644,0.9438-7.2632,0.28147-10.108-1.3586-5.8346-5.5149-10.113-11.284-11.616-8.4868-2.2105-16.83,0.02648-21.886,5.8678-2.7596,3.1884-3.8794,6.4287-3.8794,11.225,0,9.1353,5.2412,15.293,14.417,16.937,2.4497,0.43908,7.3224,0.16783,9.7004-0.54zm243.97,0.16494c1.2496-0.1934,3.4123-0.60675,4.806-0.91854l2.5341-0.56689v-7.6258-7.6258h-4.3691c-4.9702,0-4.7398-0.18847-3.8448,3.1458,0.28378,1.0573,0.51786,3.3635,0.52014,5.1248l0.004,3.2024-1.4352,0.24248c-3.0017,0.50714-7.0397,0.2815-9.1212-0.50968-2.6136-0.99343-5.2317-3.3793-6.4656-5.8921-0.86355-1.7584-0.97886-2.3844-0.97886-5.3138,0-2.8652,0.12751-3.5926,0.92989-5.3042,1.8456-3.937,5.3375-6.6323,9.2344-7.1275,3.1455-0.39977,7.4788,0.92473,10.539,3.2214l1.1299,0.84785,1.579-2.4634c0.86845-1.3549,1.574-2.5798,1.568-2.722-0.0217-0.50583-3.2867-2.2372-5.8991-3.128-3.5658-1.216-8.9611-1.4889-12.754-0.64509-9.1465,2.0349-14.903,8.9756-14.887,17.95,0.0161,9.1836,6.1847,15.117,17.298,16.637,1.4355,0.19645,6.849-0.10167,9.6121-0.52932zm-394.76-1.1c-0.12334-0.62478-0.31864-3.2987-0.43401-5.942l-0.20975-4.806,1.5303,0.0187,1.5303,0.0187,4.8852,5.9233,4.8852,5.9233h4.989c2.744,0,4.9804-0.11797,4.9698-0.26215s-2.7386-3.1677-6.0623-6.719l-6.0431-6.4569,1.431-0.90861c7.3914-4.693,7.7283-13.699,0.65645-17.548-3.1659-1.7231-5.1179-2.0102-13.669-2.0102h-7.8307l0.25834,1.136c0.14208,0.62478,0.32603,8.2533,0.40876,16.952l0.15042,15.816h4.3892,4.3892l-0.22425-1.136zm61.647-1.261c0.39263-1.3184,0.71386-2.498,0.71386-2.6215,0-0.12345-3.3817-0.22446-7.5149-0.22446h-7.5149v-4.7187-4.7187h5.5777,5.5777l0.71386-2.397c0.39262-1.3184,0.71386-2.5767,0.71386-2.7962,0-0.2845-1.8081-0.39923-6.2916-0.39923h-6.2916v-4.1944-4.1944h7.1654,7.1654v-2.6215-2.6215h-11.575-11.575l0.26811,0.96121c0.14746,0.52866,0.3318,8.1572,0.40965,16.952l0.14155,15.991h10.801,10.801l0.71386-2.397zm130.26,1.0863c-0.11393-0.72091-0.31073-3.3948-0.43734-5.942l-0.23019-4.6313h1.554,1.554l4.8745,5.9378,4.8745,5.9378,5.0099,0.004c2.8616,0.002,4.96-0.13214,4.8934-0.31369-0.0641-0.17482-2.7769-3.194-6.0284-6.7094-5.232-5.6564-5.8386-6.4339-5.2742-6.7601,0.35071-0.20274,1.4382-1.0072,2.4166-1.7877,5.8934-4.7013,5.2419-13.111-1.2736-16.441-3.1736-1.6219-5.0763-1.8883-13.49-1.8883h-7.8317l0.2681,0.96121c0.14746,0.52866,0.33181,8.1572,0.40965,16.952l0.14155,15.991h4.388,4.388l-0.20715-1.3107zm59.378,0.52337c8.3366-2.3937,13.106-8.3899,13.106-16.478,0-6.9631-3.0765-12.128-8.8437-14.846-3.3964-1.6008-5.0638-1.7936-15.507-1.7936h-9.6356l0.28016,0.78644c0.15409,0.43254,0.33844,8.0807,0.40966,16.996l0.12949,16.209,9.1558-0.18619c6.4198-0.13054,9.6786-0.33629,10.905-0.68852zm41.239-0.34861c-0.14208-0.62478-0.32602-8.2533-0.40875-16.952l-0.15042-15.816h-4.3892-4.3892l0.25834,1.136c0.14208,0.62478,0.32602,8.2533,0.40875,16.952l0.15042,15.816h4.3893,4.3892l-0.25834-1.136zm30.063,0.17477c-0.38613-1.4421-0.63199-20.949-0.25883-20.535,0.17326,0.19224,0.66827,0.8214,1.1,1.3981,0.43177,0.57672,5.2932,5.3347,10.803,10.573l10.018,9.5247h2.5894,2.5894l-0.22283-2.3593c-0.12255-1.2976-0.22394-8.9261-0.22531-16.952l-0.002-14.593h-4.0604c-4.0576,0-4.0602,0.000525-3.7909,0.78644,0.14823,0.43254,0.33285,5.3478,0.41027,10.923,0.13339,9.6092,0.10997,10.091-0.45089,9.2626-0.32538-0.48061-5.0913-5.3959-10.591-10.923l-9.9994-10.049h-3.2762c-3.2475,0-3.2737,0.0069-2.996,0.78644,0.15409,0.43254,0.33837,8.061,0.40949,16.952l0.12933,16.166h4.0412,4.0412l-0.25736-0.96121z" transform="matrix(0.8,0,0,-0.8,0,75.356829)"/><path id="path3961" fill="#ffc983" d="m335.93,98.609,0-11.779,4.4565,0.11516c3.9292,0.10153,4.6599,0.21854,6.1753,0.98898,3.3111,1.6834,5.7962,6.2667,5.7962,10.69,0,4.4078-2.6414,8.9482-6.2119,10.678-1.3735,0.66533-2.3756,0.82464-5.9343,0.94347l-4.2818,0.14296v-11.779z" transform="matrix(0.8,0,0,-0.8,0,75.356829)"/><path id="path3963" fill="#ffc983" d="m287.7,92.433,0-5.9869,2.7475,0.15905c4.3554,0.25213,6.6898,2.1563,6.6898,5.4569,0,3.6019-3.2115,6.358-7.4088,6.358h-2.0286v-5.9869z" transform="matrix(0.8,0,0,-0.8,0,75.356829)"/><path id="path3965" fill="#ffc983" d="m239.39,110.52c-4.6127-1.271-7.44-5.191-7.8751-10.919-0.85415-11.244,10.307-17.795,17.275-10.14,2.0297,2.2297,2.8946,4.4102,3.1515,7.9448,0.63139,8.6888-5.4715,15.065-12.552,13.114z" transform="matrix(0.8,0,0,-0.8,0,75.356829)"/><path id="path3967" fill="#bb532d" d="m95.806,92.478,0-5.942,1.9692,0c2.6941,0,4.5824,0.63293,5.9407,1.9913,1.9911,1.9911,2.0027,5.0841,0.0276,7.3336-1.4911,1.6982-3.4514,2.542-5.9278,2.5515l-2.0098,0.0077v-5.942z" transform="matrix(0.8,0,0,-0.8,0,75.356829)"/><path id="path3969" fill="#bb532d" d="m75.516,123.96c-4.0752-0.28883-6.8406-1.6533-10.238-5.0516-2.8262-2.8268-4.4949-5.8095-5.0955-9.1082-0.21418-1.1764-0.37537-6.3953-0.37244-12.059,0.0057-11.033,0.2259-12.754,2.1091-16.485,2.0039-3.9696,7.3019-8.1929,11.769-9.3819,1.8446-0.49091,442.49-0.53538,446.22-0.04504,5.4123,0.71028,10.711,4.8592,13.455,10.535l1.4487,2.9965v11.374c0,6.2747-0.15995,12.217-0.35677,13.255-0.99718,5.2581-5.1971,10.377-10.586,12.902l-2.9667,1.3902-221.2-0.0554c-121.66-0.0305-222.55-0.1507-224.19-0.26719zm440.08-2.7925c3.987-0.20699,5.502-0.43199,7.1014-1.0546,2.8524-1.1104,6.1886-4.2948,7.6686-7.3197l1.1337-2.3171,0.1051-11.676c0.0985-10.938,0.0599-11.824-0.61067-14.032-1.187-3.9081-4.0635-7.1318-8.0579-9.0305l-1.9224-0.91383h-223.7-223.7l-2.009,0.98621c-4.1682,2.0461-7.3757,6.0646-8.2802,10.374-0.49322,2.3498-0.5348,20.266-0.05366,23.12,0.90373,5.3602,5.3714,10.114,10.849,11.544,2.1488,0.56102,15.653,0.59736,219.35,0.59015,119.38-0.004,219.34-0.12609,222.13-0.27081z" transform="matrix(0.8,0,0,-0.8,0,75.356829)"/><path id="path3971" fill="#ffc983" d="m95.806,92.437,0-5.9827,2.3593,0.24093c4.4814,0.45763,6.7258,2.2706,6.7258,5.433,0,2.9909-2.336,5.3825-5.8134,5.952-3.5925,0.58834-3.2718,1.1416-3.2718-5.6432z" transform="matrix(0.8,0,0,-0.8,0,75.356829)"/><path id="path3992" fill="#bb532d" d="M88.014,99.556c-0.078-8.603-0.263-16.075-0.41-16.603l-0.2677-0.96121h7.657c8.1675,0,10.533,0.32966,13.027,1.8156,3.2874,1.9587,5.2562,5.01,5.2562,8.146,0,3.276-2.5567,7.2517-5.7543,8.948-0.86848,0.46072-1.579,0.93779-1.579,1.0601,0,0.18288,6.6675,7.5493,10.952,12.1l1.0695,1.136h-4.5883-4.5883l-4.9316-5.942-4.9316-5.942h-1.7777-1.7777l0.19932,4.9808c0.10963,2.7394,0.30506,5.4134,0.4343,5.942l0.23498,0.96121h-4.0406-4.0406l-0.14232-15.641zm14.214-1.8073c1.755-1.0847,3.042-2.8727,3.2652-4.5364,0.58472-4.3594-2.2404-7.0022-7.5021-7.0182l-2.5341-0.0077v6.3365,6.3365l2.7439-0.15884c2.0444-0.11835,3.0711-0.36102,4.0271-0.95187z" transform="matrix(0.8,0,0,-0.8,0,75.356829)"/><path id="path3994" fill="#bb532d" d="m135.91,99.386c-0.0716-8.7017-0.256-16.175-0.40987-16.608l-0.27976-0.78644h11.226,11.226v2.2719,2.2719h-7.1654-7.1654v4.5439,4.5439h6.2982,6.2982l-0.22508,0.89677c-0.12379,0.49322-0.41924,1.5549-0.65656,2.3593l-0.43148,1.4626-5.6512,0.0961-5.6512,0.0961,0.0969,4.9721,0.0969,4.9721,7.4275,0.0943c4.0851,0.0519,7.4252,0.13053,7.4224,0.17476-0.003,0.0442-0.29963,1.0242-0.65955,2.1776l-0.65439,2.0972-10.506,0.0925-10.506,0.0925-0.13012-15.821z" transform="matrix(0.8,0,0,-0.8,0,75.356829)"/><path id="path3996" fill="#bb532d" d="m191.75,115.67c-6.6934-0.83318-11.595-3.4108-14.491-7.6207-3.2536-4.7289-3.3688-12.457-0.26469-17.747,1.2273-2.0912,4.9819-5.5961,7.1976-6.7189,6.5708-3.3297,15.577-2.9995,21.932,0.80402l1.4406,0.86223-1.3606,2.1052c-0.74834,1.1578-1.4139,2.1584-1.479,2.2235-0.0651,0.06511-0.93894-0.43381-1.9418-1.1087-5.6925-3.8308-13.058-3.2231-17.129,1.4132-2.0565,2.3423-2.9678,4.796-3.1044,8.3587-0.14577,3.8018,0.62637,6.2605,2.7092,8.6267,4.5821,5.2055,13.686,5.4212,20.289,0.48069l1.214-0.90843,0.62139,2.1921c0.34177,1.2056,0.55075,2.3802,0.4644,2.6102-0.2356,0.62747-5.6652,3.1336-8.0578,3.7192-2.2746,0.55675-6.3613,0.91645-8.0392,0.70759z" transform="matrix(0.8,0,0,-0.8,0,75.356829)"/><path id="path3998" fill="#bb532d" d="m238.24,115.65c-5.7024-0.75631-10.519-3.9069-12.833-8.3947-1.7698-3.4323-2.1236-5.1013-1.9686-9.2885,0.12433-3.3589,0.23338-3.8329,1.4465-6.2875,3.3906-6.8604,10.715-10.836,18.831-10.221,5.295,0.40104,8.5094,1.6067,11.542,4.329,2.8296,2.5402,4.3013,5.6401,4.8158,10.144,0.5427,4.7502-0.53268,8.8407-3.3238,12.643-3.6523,4.9754-11.559,7.9977-18.51,7.0757zm8.204-5.6371c2.2166-1.0981,4.0634-3.3058,5.0979-6.0944,1.0308-2.7786,0.9442-8.449-0.17195-11.258-3.6634-9.2185-15.98-8.968-19.302,0.39264-2.2725,6.4024-0.27516,13.951,4.4195,16.702,3.0826,1.8065,6.6439,1.8986,9.9569,0.25745z" transform="matrix(0.8,0,0,-0.8,0,75.356829)"/><path id="path4000" fill="#bb532d" d="m279.94,99.206c-0.0651-8.7951-0.24921-16.266-0.40916-16.603-0.27231-0.57278,0.1959-0.61168,7.3628-0.61168,8.0055,0,10.186,0.28755,12.967,1.7104,4.6678,2.3879,6.6248,7.7669,4.4291,12.173-0.98639,1.9794-3.337,4.3353-5.2227,5.2346-0.67476,0.32176-1.2255,0.67386-1.2238,0.78244,0.002,0.10858,2.4003,2.8102,5.3303,6.0035,2.93,3.1934,5.627,6.1425,5.9932,6.5537l0.66586,0.7476h-4.5189-4.5189l-4.8852-5.9233-4.8852-5.9233-1.8839-0.0187-1.8839-0.0187,0.22161,4.806c0.12188,2.6433,0.31902,5.3172,0.43809,5.942l0.21648,1.136h-4.037-4.037l-0.11836-15.991zm13.534-1.0888c4.8814-2.2176,5.4622-8.8926,0.96509-11.091-0.84742-0.41428-2.3467-0.69192-4.2012-0.77802l-2.8836-0.13387v6.3274,6.3274l2.3593-0.0077c1.5216-0.0049,2.8568-0.23367,3.7604-0.64419v-0.000001z" transform="matrix(0.8,0,0,-0.8,0,75.356829)"/><path id="path4002" fill="#bb532d" d="m327.87,100.25c-0.0115-8.2183-0.14511-15.698-0.29701-16.622l-0.27618-1.6794,10.171,0.10767c9.5922,0.10154,10.298,0.15352,12.405,0.91312,4.6768,1.6866,8.0357,4.8702,9.5566,9.0578,1.122,3.0892,1.2567,8.1072,0.30198,11.25-1.3903,4.5772-5.377,8.628-10.307,10.472-2.7913,1.0444-6.825,1.4422-14.621,1.4422h-6.9124l-0.0208-14.942zm18.371,9.3983c2.0819-0.93505,3.4212-2.142,4.6054-4.1505,3.7913-6.4302,1.4315-15.435-4.7802-18.241-1.3132-0.59318-2.3088-0.71178-6.0294-0.71818l-4.4565-0.0077v12.1,12.1l4.4565-0.14899c3.6525-0.1221,4.7718-0.29059,6.2042-0.93389z" transform="matrix(0.8,0,0,-0.8,0,75.356829)"/><path id="path4004" fill="#bb532d" d="m380.57,99.556c-0.0783-8.6028-0.26278-16.074-0.41002-16.603l-0.26769-0.96121h4.0379,4.0379l0.13634,15.816c0.075,8.6989,0.26071,16.17,0.41273,16.603,0.27629,0.78616,0.27492,0.78645-3.7642,0.78645h-4.0406l-0.14232-15.641z" transform="matrix(0.8,0,0,-0.8,0,75.356829)"/><path id="path4006" fill="#bb532d" d="m411.41,100.25c-0.0115-8.2183-0.14381-15.69-0.29412-16.603l-0.27328-1.6603h2.836,2.836l10.327,10.399c5.6797,5.7192,10.583,10.792,10.897,11.272,0.53437,0.81915,0.56989,0.27236,0.56754-8.7383-0.001-5.2866-0.12548-10.359-0.27578-11.272l-0.27329-1.6603h3.6147,3.6147v14.454c0,7.9498,0.10105,15.421,0.22456,16.603l0.22456,2.1485h-2.3115-2.3115l-10.321-9.836c-5.6768-5.4098-10.326-9.9318-10.331-10.049-0.005-0.11716-0.48167-0.76354-1.0589-1.4364l-1.0495-1.2234,0.11722,10.661c0.0645,5.8634,0.24321,10.936,0.39721,11.272,0.25712,0.5617-0.0229,0.61168-3.4275,0.61168h-3.7075l-0.0208-14.942z" transform="matrix(0.8,0,0,-0.8,0,75.356829)"/><path id="path4008" fill="#bb532d" d="m480.56,115.57c-7.1268-0.9878-12.889-4.9874-14.965-10.388-0.95991-2.497-1.2787-6.8853-0.70194-9.6634,1.3758-6.627,6.8854-12.003,14.026-13.686,5.6488-1.3315,13.014-0.17826,17.252,2.7011l1.2027,0.81724-1.426,2.1699-1.426,2.1699-1.0881-0.72838c-0.59847-0.40061-1.8912-1.1114-2.8728-1.5795-9.348-4.458-18.9,1.9278-18.241,12.195,0.29035,4.5242,2.4143,7.9719,6.1316,9.9532,2.5901,1.3805,5.404,1.8358,9.001,1.4563,1.5379-0.16224,2.9929-0.30346,3.2332-0.31382,0.6341-0.0274,0.5705-6.6556-0.0874-9.1066-0.2838-1.0573-0.51787-2.0404-0.52015-2.1846-0.002-0.14418,1.8047-0.26215,4.0155-0.26215h4.0196v7.3051,7.305l-2.5341,0.54451c-6.1738,1.3266-11.488,1.7849-15.019,1.2955z" transform="matrix(0.8,0,0,-0.8,0,75.356829)"/><path id="path4010" fill="#ffc983" d="M280.71,123.94c-202.6-0.18-207.14-0.19-208.85-0.85-4.97-1.89-9.877-7.27-11.178-12.26-0.689-2.65-0.809-21.9-0.155-24.994,1.109-5.248,5.163-10.089,10.746-12.831l1.9856-0.97508,101.89-0.2115c56.038-0.11632,156.47-0.14358,223.18-0.06057,117.62,0.14637,121.36,0.17088,123.57,0.8111,4.7926,1.3838,8.5554,4.7566,11.356,10.179l1.6582,3.2107-0.31024,12.434-0.31021,12.434-1.2577,2.6215c-2.079,4.3332-4.9893,7.1091-10.103,9.6365l-2.4259,1.1989-16.35-0.0862c-8.9926-0.0474-109.54-0.16538-223.45-0.26215zm240.48-3.1589c3.941-1.3066,7.1285-4.0133,9.3008-7.8976l1.2179-2.1778-0.10377-12.695-0.10374-12.695-1.1161-2.3561c-1.36-2.8709-3.7044-5.2942-6.7927-7.0213l-2.2947-1.2833h-223.98-223.98l-2.1308,1.197c-3.806,2.1381-6.4266,5.2688-7.6292,9.1142-0.58377,1.8667-0.65525,3.3073-0.65036,13.107,0.0059,11.85,0.12087,12.806,1.9061,15.853,1.2834,2.1899,3.7652,4.5088,6.2703,5.8588,1.8732,1.0094,2.6166,1.1966,5.4873,1.3813,1.8263,0.11755,102.26,0.19627,223.18,0.17494,193.89-0.0342,220.04-0.10037,221.43-0.56026z" transform="matrix(0.8,0,0,-0.8,0,75.356829)"/></g></svg>
